<svg height="25px" width="25px" viewBox="0 0 1000 1000">
<path transform="scale(1,-1) translate(0,-650)" fill="none" stroke="red" stroke-width="1" d="M2047.68-44.9l-102.212 1430.948c-1.914 26.794-24.204 47.552-51.068 47.552h-234.794l-394.604 394.602c-19.994 19.996-52.412 19.996-72.406 0l-51.2-51.2c-19.996-19.994-19.996-52.412 0-72.406 19.994-19.996 52.412-19.996 72.406 0l14.998 14.998 285.994-285.994h-162.388l-445.804 445.802c-19.994 19.996-52.412 19.996-72.406 0l-445.802-445.802h-234.794c-26.86 0-49.156-20.758-51.068-47.552l-102.4-1433.6c-1.012-14.176 3.914-28.134 13.6-38.538 9.684-10.4 23.258-16.31 37.468-16.31h1945.6c0.020 0 0.044 0 0.064 0 28.278 0 51.2 22.922 51.2 51.2 0 2.134-0.132 4.234-0.384 6.3zM870.4 1770.794l337.194-337.194h-674.388l337.194 337.194zM106.188 0l95.084 1331.2h208.31c0.010 0 0.022 0 0.032 0h1437.114l95.084-1331.2h-1835.626zM1024 512c-112.922 0-217.82 61.012-295.372 171.802-73.66 105.228-114.228 244.23-114.228 391.398 0 28.276 22.924 51.2 51.2 51.2s51.2-22.924 51.2-51.2c0-126.352 33.994-244.5 95.718-332.678 57.834-82.618 132.94-128.122 211.482-128.122s153.648 45.504 211.482 128.122c61.724 88.18 95.718 206.326 95.718 332.678 0 28.276 22.922 51.2 51.2 51.2s51.2-22.924 51.2-51.2c0-147.168-40.57-286.17-114.228-391.398-77.556-110.79-182.452-171.802-295.372-171.802z" />
</svg>